<?xml version="1.0" encoding="UTF-8"?>
<svg id="Layer_1" xmlns="http://www.w3.org/2000/svg" version="1.1" viewBox="0 0 792 256.8">
  <!-- Generator: Adobe Illustrator 29.3.1, SVG Export Plug-In . SVG Version: 2.1.0 Build 151)  -->
  <defs>
    <style>
      .st0 {
        fill: #9ad6cb;
      }

      .st1 {
        fill: #fff;
      }

      .st2 {
        fill: #efa567;
      }

      .st3 {
        fill: #f7cdb1;
      }

      .st4 {
        fill: #144d3c;
      }
    </style>
  </defs>
  <path class="st4" d="M339,49.8h9.4l17.2,25.4c.9,1.7,2.6,2.7,4.4,2.7,1.3,0,2.6-.5,3.7-1.4,1.1-1,1.7-2.4,1.6-3.9v-22.8h13.6v66h-9.3l-17.4-23.6c-.5-.8-1.2-1.5-2-1.9-.8-.4-1.6-.6-2.4-.6-1.3,0-2.6.5-3.6,1.4-1.1,1-1.7,2.4-1.6,3.8v20.9h-13.6V49.8Z"/>
  <path class="st4" d="M396,115.8l18.1-66h23.4l18.1,66h-14l-.8-2.9c-.4-1.7-1.1-3.3-2.1-4.7-1-1.4-2.1-2.6-3.5-3.6-2.7-2.1-6.1-3.2-9.5-3.2-1.7,0-3.4.3-5,.8-1.6.5-3.1,1.3-4.4,2.4-1.3,1-2.5,2.3-3.4,3.7-1,1.4-1.7,3-2.2,4.7l-.8,2.9h-14ZM425.7,88c1.1,0,2.2-.2,3.1-.7.9-.5,1.7-1.2,2.4-2,.6-.8,1.1-1.8,1.3-2.8.2-1.1.2-2.2,0-3.2l-1.4-5.5c-.2-1.3-.9-2.5-2-3.2-1-.7-2.1-1-3.3-1.1-1.2,0-2.3.4-3.3,1.1-1.1.8-1.8,1.9-2,3.2l-1.4,5.5c-.3,1.1-.3,2.2,0,3.2.2,1,.6,2,1.3,2.8.6.8,1.4,1.5,2.4,2,1,.5,2,.7,3.1.7h0Z"/>
  <path class="st4" d="M500.7,49.8v12.6h-9c-2.1,0-4.1.8-5.6,2.3-1.5,1.5-2.3,3.5-2.2,5.6v45.5h-15.8v-45.5c0-2.1-.8-4.1-2.3-5.5-1.4-1.5-3.5-2.4-5.6-2.3h-9v-12.7h49.4Z"/>
  <path class="st4" d="M507.7,91.6v-41.8h15.2v40c0,4.1.9,7.2,2.8,9.3,1.8,2,4.5,3.2,7.3,3.1,2.8,0,5.4-1,7.3-3.1,1.9-2.1,2.9-5.2,2.9-9.3v-40h15.2v41.8c.1,3.9-.6,7.8-2,11.4-1.2,3-3.1,5.7-5.5,7.9-2.3,2.1-5.1,3.7-8.1,4.6-6.3,2-13.1,2-19.4,0-3-1-5.7-2.6-8.1-4.6-2.4-2.2-4.3-4.9-5.5-7.9-1.5-3.6-2.2-7.5-2.1-11.4Z"/>
  <path class="st4" d="M593.9,49.8c2.8,0,5.6.6,8.2,1.7,2.5,1.1,4.8,2.6,6.8,4.6,2,1.9,3.5,4.2,4.6,6.8,4.2,9.9.4,21.4-8.9,26.7-.1,0-.3,0-.3.2h0c0,0,13.9,26,13.9,26h-15.1l-10.9-20.8c-.4-.7-.9-1.3-1.6-1.8-.7-.5-1.5-.8-2.3-.9-1.3,0-2.7.4-3.6,1.4-.9,1-1.4,2.3-1.3,3.7v18.4h-14V49.8h24.7ZM582.5,71.5c0,1.9.9,3.7,2.3,5,1.4,1.3,3.2,2.1,5.1,2h3.7c1,0,2-.2,2.9-.6.9-.4,1.7-.9,2.3-1.6,2.9-2.9,2.8-7.6,0-10.5-1.4-1.4-3.2-2.1-5.2-2.1h-3.6c-2,0-4,.8-5.4,2.3-1.4,1.5-2.2,3.5-2.1,5.5Z"/>
  <path class="st4" d="M625.3,49.8h40v13.4h-20.1c-1.7,0-3.4.7-4.6,1.9-1.2,1.2-1.9,2.9-1.9,4.6,0,3.5,2.8,6.4,6.3,6.4,0,0,0,0,.1,0h9.8v13.2h-9.8c-3.5,0-6.4,2.8-6.4,6.4,0,0,0,0,0,0h0c0,3.6,2.8,6.5,6.3,6.5,0,0,0,0,.1,0h20.1v13.4h-40V49.8Z"/>
  <path class="st4" d="M399.6,182c10.8,5.1,17.7,16,17.7,28,0,4.1-.8,8.2-2.5,11.9-1.6,3.7-3.8,7-6.6,9.9-5.8,5.8-13.7,9.1-21.9,9h-45.2v-103.7h30.8c4.2,0,8.3.8,12.1,2.5,7.4,3.2,13.3,9.1,16.4,16.4,1.7,3.8,2.5,7.9,2.5,12.1,0,4.9-1.1,9.6-3.3,14ZM381.6,168c0-5.7-4.7-10.4-10.4-10.4-2.8,0-5.5,1.1-7.4,3.1-4.1,4.1-4.1,10.7,0,14.7s10.7,4.1,14.7,0h0c2-1.9,3.1-4.6,3.1-7.4h0ZM385.2,220.6c2.9,0,5.6-1.1,7.5-3.3,2-2.1,3-4.8,3-7.7,0-2.8-1.1-5.5-3.1-7.4-2-2-4.7-3.1-7.5-3h-13.7c-5.9,0-10.7,4.8-10.7,10.7,0,1.4.3,2.8.8,4.1.5,1.3,1.3,2.4,2.3,3.4,1,1,2.1,1.8,3.4,2.3,1.3.6,2.7.9,4.2.9h13.7Z"/>
  <path class="st4" d="M427.1,202.7v-65.8h24v63c0,6.5,1.5,11.3,4.5,14.6,2.9,3.2,7.1,5,11.4,4.9,4.4.1,8.6-1.6,11.5-4.9,3-3.2,4.5-8.1,4.5-14.6v-63h24v65.8c.1,6.1-.9,12.2-3.2,17.9-3.8,9.5-11.7,16.7-21.4,19.8-9.9,3.2-20.6,3.2-30.5,0-9.7-3.1-17.6-10.3-21.4-19.8-2.3-5.7-3.4-11.8-3.3-18Z"/>
  <path class="st4" d="M553.4,158c-2.7,0-5.3,1-7.2,3-1.9,1.9-3,4.5-2.9,7.3,0,5.6,4.4,10.1,10,10.1,0,0,.1,0,.2,0h19v18.8c-15.5,0-28.1,12.4-28.2,27.9,0,.1,0,.2,0,.3v15.3h-20.8v-103.8h64v21.1h-34Z"/>
  <path class="st4" d="M631.5,158c-2.7,0-5.3,1-7.2,3-1.9,1.9-3,4.5-3,7.3,0,5.6,4.4,10.1,10,10.1,0,0,0,0,.1,0h19v18.8c-3.8,0-7.5.7-11,2.2-6.8,2.8-12.2,8.2-15,15-1.5,3.5-2.2,7.2-2.2,11v15.3h-20.8v-103.8h64v21.1h-34Z"/>
  <path class="st2" d="M184.3,144c10.1.6,28.7-.6,36.9-5.7,14.7-8.9,25.1-26.1,32.9-41.6,5.2-35.2-14.8-80.7-61.3-82.5-22.3-2.8-41.9,9.6-55,27.9-28.6,39.8,2.6,99.2,46.4,101.9Z"/>
  <path class="st0" d="M186.2,204.2c-1-3.7-2.3-7.3-3.5-11-1.9-5.6-3.2-12.3-5.3-17.9-1-2.6-2.4-5.1-4.1-7.2-.5-.7-1.1-1.3-1.7-1.8-1.6-1.3-6.3-5.4-10.2,7.4-.5.2-7.9,29-9.8,36.6,0-.2-.1-.4-.2-.7-1.3-3.6-2.1-8.1-3.4-11.7-.6-1.7-1.5-3.3-2.7-4.7-.3-.4-.7-.8-1.1-1.2-1.1-.9-4.1-3.5-6.7,4.9-.4.1-6.5,24.1-6.7,25.1s-3.7,11.8-4.2,14.1c-.3,1.1-.2,2.4.4,3.4.3.5.6.9,1.1,1.2l.4.2h13.5c0,0,0-3.8,0-3.8-1.1-3.1-2.6-6-4.4-8.8-.3-.6,0-1.3.5-1.7.5-.2,1.1-.1,1.5.3.9,1.3,1.7,2.7,2.4,4.1v-7.2c-1.1-3.1-2.6-6-4.4-8.7-.3-.6,0-1.3.5-1.7.5-.2,1.1-.1,1.5.3.9,1.3,1.7,2.7,2.4,4.1v-9.1c0-.7.4-1.3,1.1-1.3.7,0,1.3.4,1.3,1.1,0,0,0,.1,0,.2v11.7c.9-1.5,1.9-3,3-4.4.4-.5,1.2-.6,1.7-.2s.6,1.2.2,1.7h0c-1.9,2.5-3.5,5.2-4.9,8v8.2c.9-1.5,1.9-3,3-4.4.4-.5,1.2-.6,1.7-.2s.6,1.2.2,1.7h0c-1.9,2.5-3.5,5.2-4.9,8v2.4l22.8.2v-4.9c-2-5.5-4.7-10.7-8-15.6-.4-.6-.3-1.5.4-2,.6-.4,1.5-.3,1.9.4,2.1,3.1,4,6.5,5.6,9.9v-16.1c-2-5.5-4.7-10.7-8-15.6-.4-.6-.3-1.5.4-2,.6-.4,1.5-.3,1.9.4,2.1,3.1,4,6.5,5.6,9.9v-19.3c0-.8.5-1.5,1.3-1.5s1.5.5,1.5,1.3c0,0,0,.2,0,.2v23.3c1.9-3.6,4.1-7,6.6-10.2.5-.6,1.4-.6,2-.1.5.5.6,1.3.2,1.9-3.3,4.5-6.2,9.3-8.8,14.3v17.5c1.9-3.6,4.1-7,6.6-10.2.5-.6,1.4-.6,2-.1.5.5.6,1.3.2,1.9-3.2,4.1-8.8,13.3-8.8,14.3v2.4c12,0,22.2.1,23.5.2,6.7-1.1-.6-11.4-7.3-37.3Z"/>
  <path class="st4" d="M149.5,230.7c.4-.5.3-1.3-.2-1.7s-1.3-.3-1.7.2h0c-1.1,1.4-2.1,2.9-3,4.4v-8.2c1.4-2.8,3-5.5,4.9-8,.4-.5.3-1.3-.2-1.7s-1.3-.3-1.7.2h0c-1.1,1.4-2.1,2.9-3,4.4v-11.7c0-.7-.4-1.3-1.1-1.3-.7,0-1.3.4-1.3,1.1,0,0,0,.1,0,.2v9.1c-.7-1.4-1.5-2.8-2.4-4.1-.5-.5-1.2-.5-1.7,0-.4.4-.5,1-.3,1.5,1.8,2.7,3.3,5.7,4.4,8.7v7.2c-.7-1.4-1.5-2.8-2.4-4.1-.5-.5-1.2-.5-1.7,0-.4.4-.5,1-.3,1.5,1.8,2.7,3.3,5.7,4.4,8.8v3.9h2.4v-2.4c1.4-2.8,3-5.5,4.9-8Z"/>
  <path class="st4" d="M179,224.7c.4-.6.3-1.5-.4-2-.6-.4-1.4-.3-1.9.2-2.5,3.2-4.7,6.6-6.6,10.2v-17.5c2.6-5,5.6-9.7,8.8-14.3.4-.6.3-1.5-.4-2-.6-.4-1.4-.3-1.9.2-2.5,3.2-4.7,6.6-6.6,10.2v-23.3c0-.8-.5-1.5-1.3-1.5s-1.5.5-1.5,1.3c0,0,0,.2,0,.2v19.3c-1.6-3.4-3.5-6.8-5.6-9.9-.4-.6-1.3-.8-1.9-.4-.6.4-.8,1.3-.4,2,3.3,4.8,6,10.1,8,15.6v16.1c-1.6-3.4-3.5-6.8-5.6-9.9-.4-.6-1.3-.8-1.9-.4-.6.4-.8,1.3-.4,2,3.3,4.8,6,10.1,8,15.6v4.9h2.8v-2.3c0-1,5.6-10.2,8.7-14.3Z"/>
  <path class="st1" d="M314.3,87.8c1.5,2.5,1.7,4.6,3,7.2.7,1.4,2.4,3.3,2.8,4.8.9,3.1,1.8,6.2,2.6,9.4,1,3.8,1.8,7.6,2.9,11.4,1.4,4.9,1.3,8.8,5,12.4,3.1,3.4,6,7,8.5,10.9,1,1.6.6,1.8,2.2,3,1.8,1.4,4.1,3.6,3.4,5.8-.2.7-.7,1.6-1.3,1.8-1.9.6-3.5.5-4.2,1.9-1.5,3.3-3.4,6.7-6.7,7.4-.3,0-.6.2-.8.3-1.9,5.1-5.4,6.6-10.4,4.4-2.6-1.2-4.7-3.8-6.6-6-2.5-2.9-5.3-4.7-7.7-7.7-.9-1.1-1.4-3.5-3.1-3.1-.9,2.4-2.3,6.8-3.4,9.3-.8,1.9-2,3.6-2.7,5.5-.6,1.6-1.6,3.2-1.8,4.9-.4,4.5,1,8.9,2.8,13.1,2.1,4.7,3.4,9.6,3.9,14.7.4,4,.7,8,1.2,12,.6,4.8,1.1,9.6,1.9,14.3.2,1.3.9,5.1,1.7,6.1,2.2,2.6,4.6,2.7,6.8,5.3.6.7-.2,1.6.3,2.6-1.4.3-1.4.7-2.4.7-5,.2-9.4,3-14.6,2.4-7-.7-14.1-.8-21.2-1.3-2.7-.3-5.4-.8-8.1-1.4-1.9-.3-3.4-1.8-3.8-3.7-1.1-4.2-2.3-8.3-3.1-12.6-1.5-7.9-2.7-15.9-4.2-23.8-.7-3.2-1.5-6.3-2.5-9.4-.4-.8-.9-1.5-1.7-2-1.9-1.4-4-2.4-5.4-4.5-1.1-1.5-2.5-1-3.1,1-1.7,4.9-3.3,9.9-4.9,14.8-.8,2.3-1.8,4.6-2.6,6.9-1.7,5.3-5,9.7-7.8,14.4-1.8,2.9-4,5.6-6,8.4-.8,1-1.4,2.1-1.9,3.3-1.2,3-.2,4.8,2.8,5.9.4.1.8,0,1.1.2.5.3,1.4.8,1.4,1.2,0,.7-.4,1.4-1,1.9-1.2.5-2.4.8-3.7.9-2.6.3-5.2.9-7.7,1.7-5.1,1.6-10.2,2-15.2-.7-2.2-1.2-4.9-1.5-6.4-3.9-.3-.6-1.4-.7-2.1-1.1-5.5-2.8-7.2-7.4-4.7-13,1.3-3.1,2.9-6,4.7-8.8,3.7-5.3,6.3-11.1,9.3-16.8,1.5-2.8,3-5.5,4.6-8.2.9-1.5,1-3.4.4-5-1.2-4.3-3.3-8.1-5.1-12.1-2.8-6.3-1.9-12.5.9-18.5,1.3-2.5,2.8-5,4.4-7.3,1.7-2.7,3.6-5.2,5.2-7.9.5-1,.8-2.1,1.1-3.2.3-.8.7-1.5,1.2-2.2,2.6-2.6,4.6-5.7,5.9-9.1,5.4-13,10.8-26,17-38.6,1.8-3.7,4.4-3,6.5-8.1,1.1-2.8-.8-5-.7-6,.8-5.1,2.6-9.9,5.3-14.2,3.3-5.5,6.3-11.1,9.4-16.7,1.6-2.9,3.4-5.8,6.5-7.5.7-.5,1.3-1.1,1.9-1.8,1.5-1.6,3.1-3.2,4.8-4.7,2.8-2.3,5.8-4.4,8.8-6.4,2.3-1.4,4.8-2.6,7.5-3.4,3.7-1.1,7.3-2.4,10.3-4.9,1.2-1,2.4-1.9,3.6.2.3.5,1.4.5,2,.7.6,2.5-1.8,3.5-2.5,5.5,1-.2,1.9-.3,2.8-.5,3-.4,3.5,0,2.9,3.4h3.7c3.3,0,3.9,1,2.4,3.9,0,.2-.1.4-.2.6l1.6,1.4-.8,1.6c.1.3.3.5.5.7,2.4,1.6,4.7,3.3,7.1,4.8s2.1,2.3,3.4,4.5c-.8,2.4-2.5,2.4-4.4,2l-2.4-1.1c-2.2,2.8-2.3,2.8-5.8,2-.7-.2-1.5-.1-2.2.2-1,.4-2,.4-3,.2-.8-.2-1.6-.6-2.3-1-2.3,2.8-2.3,4.6-4.8,2.2-.8-.7-3.8-3.9-4.5-4.7l-.9,2.1c-1.7.2-.5,1.9-2,1.4s-2.9-2.2-3.9-3c-2.5,2.2-5,4.3-7.3,6.6-.7.8-1.2,1.8-1.6,2.8-.5,1.1-1,2.1-1.7,3-2.6,2.9-3.2,6.4-3.6,10l4.5,1.9c-.4,1.3-.8,2.4-1.1,3.5-.6,3.1,0,4.6,2.7,6.1,1.4.8,2.9,1.2,4.5,1.3,2.8,0,5.6-.5,8.8-.9,1.1,1.4,2.7,2.1,4.4,2.1,1.3,0,2.6,0,3.8-.1,2.6-.3,5.4.9,7.9-.5.2-.1.6.1.9.2,2.5.6,4.9,1.3,6.4,3.6.2,1.1.5,2.2.6,3.4,0,.6-.2,1.2-.4,1.8l-2.5.3,1.7,1.2Z"/>
  <path class="st3" d="M314.7,80.7c-1.4-2.4-3.8-2.8-6.3-3.4-.3,0-.6-.3-.9-.2-2.6,1.4-5.3.2-7.9.5-1.3.1-2.6,0-3.8.1-1.7,0-3.4-.7-4.4-2.1-3.2.4-6,.9-8.8.9-1.6,0-3.1-.5-4.5-1.3-2.8-1.5-3.4-2.9-2.7-6.1.2-1.1.7-2.2,1.1-3.5l-4.5-1.9c.4-3.6,1-7.1,3.6-10,.7-.9,1.2-1.9,1.7-3,.4-1,1-1.9,1.6-2.8,2.3-2.2,4.8-4.3,7.3-6.6,1,.8,2.3,2.5,3.9,3s3.4-.3,5-.6l.3-.7c.6.9,1.3,1.7,2,2.5,2.5,2.4,4.2,2.3,6.5-.6.7.4,1.5.8,2.3,1,1,.2,2,.1,3-.2.7-.3,1.4-.4,2.2-.2,3.5.8,3.5.8,5.8-2l2.4,1.1c.6,1.8,1.4,3.5,1.8,5.3.5,2,.7,4-.6,6-.5.9,0,2.4,0,3.6.2,1.9.7,3.8-1.5,4.9.2-1.8.4-3.6.5-5.5-.8-.3-1.5-.5-2.4-.7-6-.3-11.9-.6-17.9-.6-2.1,0-4.1.5-6,1.3-2.6,1-3.7,4.6-2.6,7.1,1,2.2,2.8,2.7,4.8,2.7,5.5,0,11,0,16.5,0,1.2,0,2.3-.4,3.4-.9,1.3-.8,2.6-1.7,3.8-2.7,1,2.2.7,4.8-.7,6.8,2.2,1.9,1.1,3.8-.3,5.5-1,1.2-2.4,1.9-3.5,3.1Z"/>
  <path class="st1" d="M319.3,65.3c-1.2,1-2.4,1.9-3.8,2.7-1,.6-2.2.9-3.4.9-5.5.1-11,.1-16.5,0-2,0-3.8-.5-4.8-2.7-1.1-2.6,0-6.1,2.6-7.1,1.9-.8,3.9-1.2,6-1.3,6,0,11.9.4,17.9.6.8.1,1.6.4,2.4.7-.2,1.9-.4,3.7-.5,5.5,0,.3,0,.5,0,.7Z"/>
  <path class="st4" d="M214.4,135.7c0,0,0,.2.2.2,0-.1,0-.2-.1-.3h0Z"/>
  <path class="st4" d="M313.4,235.9c-2.9-2.3-5.3-5.3-6.9-8.7-.2-.5-1.2-.7-1.8-1.1-.2.7-.8,1.5-.6,2,1.3,2.7,2.1,5.7,4.9,7.5,1.3.9,2.5,1.9,3.6,3-2,1.2-4.4,1.9-6.8,1.8-3.2,0-6.5,0-9.7,0s-2,0-2.2.4c-.8,1.6-2.1,1.2-3.3,1.1-5.8-.6-11.5-1.2-17.3-1.9-2.9-.4-2.7-.8-5.9-3.2-2.8-2.1-3.9-4.8-4.5-8-2.4-12.4-4.8-24.9-7.1-37.4-.2-1.9-1.3-3.5-2.8-4.6-2.8-1.9-5.4-3.9-8-6-3.5-2.9-5.2-6.8-5.9-11.2-.6-3.6,0-7,.6-10.5.6-4.4,2.8-8.5,6.1-11.4,1.4-1.2,2.9-2.4,4.4-3.5.8-.6,1.9-1.1,1.2-2.3-.8-1.3-1.9-.5-2.8,0h-.2c-5.8,4.1-10.3,9-11.3,16.3-.2,1.5-.6,2.9-.8,4.4-.6,5.4-.1,10.6,2.8,15.4,1.5,2.2,3.1,4.2,4.9,6.2-1,2-2,4.4-3.2,6.6-2.6,4.7-4.2,10-4.8,15.4-.4,3.1-1.5,6.1-3.4,8.7-3.1,4.8-7,8.9-10.3,13.5-1.1,1.8-2,3.8-2.5,5.9-.6,1.6,0,3.3,1.5,4.1,1.4,1,2.7,2.1,4.5,3.5-3,.5-5.6,1.7-7.7,1.1-3-.8-4.7,1.8-7.3,1.4-.6,0-1.2,0-1.8,0-7.6-.6-14.9-3.2-21.2-7.4-3-2-3.7-4.2-2.9-7.7,1.2-4.5,3.1-8.8,5.8-12.6,4.6-6.7,8.7-13.8,12.2-21.2.8-1.9,1.6-3.8,2.2-5.8.8-2,.6-4.2-.6-5.9-1-1.5-2-3.1-3-4.8-2.6-4.4-4.1-9.1-3.4-14.3.8-5.9,3.2-11.4,7-16,3.7-4.6,7.1-9.8,13.7-11.1.6-.3.9-.8.9-1.5-.3-.6-.9-.9-1.5-1-.8,0-1.5.2-2.3.4-.5,0-1,.9-1.6.3,0,0,0,0,0,.1,0,0,0,.1-.1.2l-3.1,2c-5.4,5-10.2,10.4-13.2,17.2-2.4,5.5-3.6,11.2-2.1,17.2.9,3.7,2.6,7.2,5,10.3,2,2.3,2.4,5.5.9,8.2,0,0,0,.2,0,.3-3.3,7.5-7.2,14.6-11.8,21.4-3.6,5.2-6.6,10.7-7.8,17-.2,1.4-.1,2.7.2,4,.6,2.5,2.3,4.2,4.5,5.6,5.7,3.7,12.1,6.1,18.9,7.1,2.4.2,4.9.3,7.3,0,1.5-.1,2.9-.3,4.3-.6,3.4-.6,6.8-1.1,10.1-1.9.9-.2,1.7-.9,2.1-1.7.2-.5-.6-1.6-1.2-2.1-1.9-1.7-3.9-3.2-5.9-4.8-.1-2,.5-4,1.8-5.6,1.4-1.7,3.1-3.2,4.4-5,2.4-3.3,4.7-6.8,7-10.2,1.5-2.1,2.5-4.5,2.7-7.1.4-8.1,4.3-15,7.9-22.1,1.6,1.1,3.1,2.2,4.7,3.2,1.3.8,2.1,2.1,2.1,3.6.8,5.3,1.7,10.7,2.7,16,1.2,6.6,2.7,13.1,4,19.6.7,3.5,1.3,7,4.1,9.5.2.2.3.5.3.8,0,1.4,1,1.9,2,2.3,1.5.7,3.1,1.2,4.7,1.6,7.8,1.5,15.8,2.3,23.7,2.3.8,0,1.8,0,2.2-.4,1.4-1.5,3-1.1,4.7-1.1,1.8,0,3.5,0,5.3-.1,1.8-.2,3.6-1.5,5.4-1.2,7.5,1.1,3.2-2.8,1.3-5.2-.1-.2-.3-.5-.5-.7Z"/>
  <path class="st4" d="M344,148.1c-.3.5-1.5,1.4-1.3,1.6,1.8,2-.3,4.6-4.3,4.8-1.5,0-2,.8-2.1,2.2-.3,3.7-1.6,5-5.3,5.4-2.8.3-3,.5-2.6,3.3.3,1.8-.2,2.5-1.9,2.1-1.8-.4-3.6-1.1-5.2-2-3.1-2-6.2-4.1-8.5-7.2-1-1.4-2.1-2.6-3.2-3.9-4.9-6.3-9.3-12.9-11.4-20.8-1.5-5.7-3.5-11.2-5.3-16.8-.3-.8-.7-1.6-1.2-2.3-.4-.4-1-.5-1.5-.4-.4.3-.7.9-.7,1.4,0,.6.3,1.1.5,1.6,1.4,4,2.8,8,4,12,2.2,7.4,4.2,14.8,9.1,21,.2.2.2.5.1.3-.8,1-1.5,2.1-2.1,3.2-1.1,2.7-2,5.5-3.1,8.3-.5,1.2-1.2,2.4-2.1,4-.4-1.2-.6-1.7-.7-2.2-.8-3.3-1.6-6.7-2.4-10-.1-.7-.4-1.3-.7-1.9-.2-.3-.9-.7-1.2-.6-.5.2-.9.7-1,1.2,0,.5,0,1,.1,1.4,2.3,7.8,3.5,15.7,4.8,23.7.6,4,1.1,8,3.2,11.6,2.2,3.8,2.8,7.9,2.8,12.2,0,2.9.1,5.9.4,8.8.6,4.8,1.6,9.6,3.1,14.2,2.4-1.2,2.4-1.2,2-2.8-2-7.2-3-14.7-2.8-22.1.1-3.6-.7-7.1-2.4-10.2-3.4-6.3-3.6-13.3-4.7-19.5,1.2-1.5,2.4-2.4,2.9-3.6,1.7-3.8,3.1-7.6,4.7-11.4.2-.6.4-1.2.7-2.1.9,1.1,1.5,2,2.2,2.8,2.8,3.1,5.5,6.4,8.6,9.3,2.6,2.5,5.6,4.6,9.3,5.4,4.5.9,6.6-.6,6.6-5.2,4.6-.3,7-2.9,7.8-7.2,3.6-.7,6-2.3,6.6-4.8.4-1.8-.6-3.1-1.8-4.6Z"/>
  <path class="st4" d="M314.6,87.6c2.7-2.3-.5-5.4,1.2-7.8.8-.5,1.7-1,2.5-1.5,2.5-1.6,3.3-4.8,2-7.4-.3-.6-.8-1-1.5-1.1-.6.2-1,.8-1.1,1.4,0,1.1,0,2.2.1,3.2,0,.6,0,1.6-.4,1.9-1.7,1.2-3.4,2.5-5.6,1.8-1-.3-2-.7-3-1.2-1.5-.9-3.3-1.3-5.1-1.1-2.6.3-5.3.6-7.9.9-1.5.1-2.9.1-4.1-1.1-.5-.4-1.2-.6-1.9-.5-1.1.1-2.1.3-3.2.5-3,.6-6.2.2-9-1-2.2-1-2.7-1.9-1.9-4.2.6-1.7,1.3-3.3,2.1-4.9.4-.8.8-1.6-.3-2.5-.8.2-1.7.5-2.6.8-1.1.5-2.3,0-2.7-1.1,0,0,0-.2,0-.3-.3-.9-.2-1.9.2-2.8,1.3-2.4,2.8-4.7,4.4-6.9,1.6-2.1,1.7-2,.3-4.2l1.3-1.8-1.1-1.4c-2.2,1.7-3.3,3.3-1.9,5.4-1.5,2.4-3.1,4.5-4.3,6.7-2.6,4.9-1.4,7.5,3.9,8.9-.5,1.4-1,2.7-1.4,4.1-.7,2.7,0,4.4,2.5,5.6,1.6.8,3.3,1.3,5,1.5,2.4,0,4.9,0,7.3-.2.7-.1,1.5,0,2.2.3,2.2,1.3,4.5,1.2,6.9.9,1.9-.2,3.7-.6,5.6-.7,1.2-.1,2.3,0,3.5.2,2,.7,3.9,1.6,5.9,2.5v3.8c-.5-.2-.9-.4-1.2-.5-1-.5-1.9-.8-2.5.3s.2,1.6,1,2.1c1.8,1.2,3.3,2.9,4,5,1.6,4,3.3,8,4.6,12.1,2.3,7,4.4,14,6.7,21,1,3.3,2.7,6.3,4.8,9.1,2.5,3.1,4.6,6.6,6.9,9.9.4.8.9,1.5,1.4,2.2.5.4,5.2,5.3,6,4.1,1.3-1.9-3.3-4.9-3.8-5.6-2.7-4-5.4-8-8-12-1.3-2-2.9-4-3.8-6.2-2.1-5.6-4.1-11.3-5.7-17-2-7.3-4-14.7-8.2-21.3Z"/>
  <path class="st4" d="M213.8,135.6h.6c0-.4,0-.8.2-1.1,1.4-2.4,3-4.6,4.2-7.1,3.4-7.1,6.5-14.3,9.8-21.4.3-.7.4-1.8,1-2.1,1.8-1,1.9-2.9,2.6-4.4.8-1.8,1.6-3.6,2.4-5.3.4-.9,1-1.6,1.4-2.5,2-4.2,4.2-8.3,8.3-10.8,2.9-1.8,2.9-1.9.4-4.1-.2,0-.3-.2-.5-.2,0,0-.2,0-.3,0-1.7,1.2-3.7,1.9-4.2,4.4-.3,1.1-1.9,1.9-2.6,3-4,6.4-7.9,12.9-10.7,20-1.5,3.8-3,7.7-4.8,11.4-3.2,6.6-5.9,13.5-10.8,19.2-.5.5-.6,1.4,0,1.9,0,0,.1,0,.2.1l2.8-1.2Z"/>
  <path class="st4" d="M310.7,32.2c-.4,1.8,1,2,1.9,2.4,3,1.4,5.6,3.4,7.5,6,.3.5.6,1,.9,1.6l-.4.5c-1.2-.6-2.4-1.1-3.6-1.8-2-1.1-2.5-.9-2.9,1.3-.1.6-.3,1.1-.4,1.7-.4,0-.9-.1-1.3-.2-.5-.2-1-.5-1.5-.9-.8-.6-1.5-1.3-2.3-1.9-.4-.3-.9-.3-1.4-.1-.3.4-.5.9-.5,1.5,0,.4.1.8.3,1.1,0,.2.1.5.2.7l-.9-.2c-.4-.2-.7-.3-1-.6-1.3-1.1-2.5-2.3-3.8-3.2-.7-.3-1.6-.5-2.4-.5,0,.7.1,1.4.3,2.1.5,1.2,1.4,2.3,1,3.8-2-.6-3.7-1.7-4.9-3.3-1.1-1.2-2-2.4-3.1-3.5-.8-.5-1.6-1-2.4-1.3.1,2.2.2,3.7.4,5.9-1.1-.9-1.9-1.5-2.6-2.1s-1.3-1.5-2.1-2.1c-.4-.3-1-.2-1.5-.3,0,.5-.2,1.3,0,1.6,1.6,1.6,3.2,3.2,5,4.6,1.6,1.2,2.4.8,3.2-1.1.1-.3.3-.6.7-1.3.4.7.9,1.3,1.5,1.9,1.4,1.2,3,2.2,4.6,3.1,2,.9,2.8.4,3.5-1.6.1-.4.2-.7.3-1.1,5.3,2.8,4.9,2.6,7.1.4,4,1.7,4.5,1.5,6.3-1.7,1.4.5,2.8.9,4.2,1.1.9.1,1.9-.2,2.5-.8.3-.9.2-1.8-.2-2.6-2.4-3.9-6-6.9-10.3-8.5-.6-.2-1.3-.2-1.9-.2Z"/>
  <path class="st4" d="M295.4,57.9c-3.5.5-6.2,4.9-5.3,8.2.3.9.9,1.7,1.8,2.1,1.7.8,3.5,1.3,5.3,1.4,5.2,0,10.4-.4,15.6-.5,3.1.2,5.8-1.8,6.7-4.7l2.7-.8c0-.8-.1-1.2-.2-1.7-.5-3.1-1.5-4.1-4.6-4.2-.5,0-1,0-1.5,0l-9.5-.6c.1-1.3.2-2.3.4-3.9-1.7.7-2.9-.6-4.4.4.5,1.1,1,2.2,1.6,3.4-.9.1-1.4.3-1.8.3-2.2.2-4.5.1-6.7.5ZM317,59.3c2.2,0,2.3.4,2.5,3.2h-2.9c-6.2-.3-12.4-.6-18.5.5-1.1.3-2.2,0-3-.7-.4-.2-.9,0-1.2.2-.2.4-.1.9.1,1.3.6.5,1.2.9,2,1.1,1,.3,2.1.5,3.4.8.4-1.2,1.5-1.6,3-1.6,4.3,0,8.6,0,13,0,.8,0,1.6,0,1.8,1.1s-.6,1.5-1.4,1.9c-.4.1-.8.2-1.2.2-5.3.3-10.6.7-15.9.8-1.9-.1-3.7-.5-5.4-1.1-1.4-.4-1.7-1.4-1.5-2.8.5-3.2,1.8-4.7,5-4.8,6.8-.2,13.5-.2,20.3,0Z"/>
  <path class="st4" d="M289,18.9c3.8-1.9,7.5-3.9,11.2-5.8.4-.2.9-.6,1-1,.2-.5.1-1.1-.1-1.6-.3-.4-.8-.6-1.2-.5-.7.1-1.3.4-1.9.7-2.4,1.2-4.7,2.5-7,3.8-2.5,1.4-5,2.6-8.5,1.9.1,1.4.2,2.4.3,3.4,2.1.4,4.2.1,6.2-.8Z"/>
  <path class="st4" d="M266.5,30.2c.7.2,1.4.1,2-.2,1.9-1.1,3.7-2.8,5.7-3.6,2.3-.9,2.7-3.2,4.3-4.5.1-.1.1-.4.1-.6,0-.8-.6-1.4-1.3-1.5-.2,0-.3,0-.4,0-.6.2-1.2.6-1.8,1-2.3,1.7-4.5,3.4-6.8,5.1-.7.5-1.4,1.1-2,1.8-.6.8-.9,1.8,0,2.3Z"/>
  <path class="st4" d="M246.9,58.8c.4.2,1.2-.3,1.7-.5.2-.1.4-.5.4-.7,1.3-3.4,3.3-6.5,5.9-9,.5-.6.9-1.3,1.2-2-.4-.5-.6-1.1-.9-1.2-.5-.2-1.1,0-1.6.2-2,2.3-4.8,4-5.8,7.2-.4,1.5-1.3,2.9-1.7,4.4,0,.7.2,1.3.7,1.7Z"/>
  <path class="st4" d="M284.2,53.8c1.8-1.1,3.7-2.1,5.7-2.9,1.7-.7,3.6-.4,4.9.9,1.1,1,2.4,2,4,3.3.2-.9.5-1.6.4-2-1.1-2.5-5.9-5.1-8.6-4.5-2.9.5-5.6,1.8-7.8,3.8-.4.4-.7.8-1,1.3.9,1.4,1.6.7,2.5.2Z"/>
  <path class="st4" d="M240.7,76c1.4-2.1,4.3-3.3,3.4-6.6-.1-.6.5-1.4.8-2.1.2-.4.5-.8.8-1.4-.3-.5-.6-1.1-1-1.3-.4-.2-.9-.2-1.3,0-.6.6-1.1,1.3-1.5,2.1-1.1,2.6-1.4,5.5-3.4,7.7-.3.3,0,1.4.5,1.9.2.2,1.5,0,1.7-.3Z"/>
  <path class="st4" d="M295.9,22.7c.3.4,1.2.3,1.8.3.3,0,.7-.4,1-.6,2.3-2,4.5-4,6.7-6.1.3-.4.5-.8.7-1.3-.1-1.4-1.2-2.1-2.1-1.3-2.8,2.3-5.4,4.7-8.1,7.2-.3.6-.3,1.2,0,1.8Z"/>
  <path class="st4" d="M311,54.4c1.3-.7,2.7-1.3,4-2.1,1.9-1.3,4.4-1.4,6.4,0,1,.6,2,1.2,3,1.8.9.4,1.7.5,2-.8-5.2-5.4-13.8-5-15.3,1.2Z"/>
  <path class="st4" d="M256.2,42c1,.6,1.6-.3,2.1-1,1.4-2,2.9-3.9,4.3-5.9.2-.3.3-.6.4-.9,0-1.3-.9-2.1-1.9-1.6-.6.3-1.2.7-1.6,1.2-1.3,1.8-2.6,3.7-3.8,5.6-.5.9-.7,1.9.4,2.5Z"/>
  <path class="st4" d="M251.3,83.6c-.8.3-1.2.4-1.3.6-1.5,3.4-3.1,6.9-4.5,10.4-.1.4.3,1,.5,1.4.5-.3,1.1-.4,1.3-.8,1.4-3.1,2.7-6.2,4-9.4.1-.7.1-1.5,0-2.2Z"/>
  <path class="st4" d="M302.1,24.5c.4.6,1.1.9,1.8.9,1.8-.7,3.5-1.6,5.1-2.6.4-.2.5-.8.6-1,0-1.3-.9-2-2-1.5-1.6.7-3.1,1.5-4.6,2.4-.6.4-.9,1.1-.9,1.8Z"/>
  <path class="st4" d="M260.6,112.9c0-.4-.6-.8-1.1-1.4-3.5,7.1-4.4,9.7-3.7,12.2.5-.4.9-.9,1.3-1.5,1-2.3,2-4.7,3-7,.3-.7.5-1.5.5-2.3Z"/>
  <path class="st4" d="M257.1,148.3c.2-.6.2-1.2.1-1.8-.6.2-1.5.2-1.7.7-1.5,2.6-3,5.3-4.3,8-.2.4.3,1.1.6,2.1.5-.6.9-1.1,1.4-1.7,1.3-2.4,2.7-4.8,3.9-7.2Z"/>
  <path class="st4" d="M207.8,221.9c1.3-2.3,2.4-4.6,3.5-7,.1-.3-.3-1-.5-1.4-.4.2-1.1.2-1.2.5-1.4,2.6-2.7,5.3-4,8,.2.2.5.5.7.7.5-.3,1.3-.4,1.5-.8Z"/>
  <path class="st4" d="M205.1,152.2c-1.3,2.4-2.6,4.8-3.7,7.3-.2.4.2,1,.3,1.5.5-.3,1.3-.5,1.5-.9,1.3-2.3,2.5-4.7,3.6-7,.2-.6.2-1.2.2-1.9-.9.4-1.7.5-1.9.9Z"/>
  <path class="st4" d="M202.2,208.8c2.3-2.5,3.8-5.8,4.2-9.2-1.4-.6-1.7,0-2.1.8-1.1,2.4-2.4,4.7-3.5,7-.2.5-.3,1-.3,1.6.6,0,1.4.1,1.7-.2Z"/>
  <path class="st4" d="M306.5,109.4c-.1-1-.5-1.9-1-2.7-.2-.3-1-.4-1.5-.3-.3.3-.4.8-.3,1.2,1.3,1.9.9,4,1.1,6,0,.8.2,1.6.4,2.3.2.4.8.7,1.2,1.1l.7-1c-.2-2.5-.2-4.5-.5-6.6Z"/>
  <path class="st4" d="M245.6,159.8c.2-1.2.6-2.3,1-3.6-2.1.5-2.9,1.3-3.2,3.8-.3,2.3-.9,4.9,1.1,7.1,1.4-1.4.5-2.7.6-3.8s.2-2.3.5-3.5Z"/>
  <path class="st4" d="M279.3,115.6c.5,1.9,1.1,4.3,1.9,6.7.1.4.9.5,1.3.8.2-.4.6-.9.5-1.2-.5-2.8-1.1-5.5-1.7-8.2-.2-.3-.5-.6-.9-.6-.4,0-.7.2-.9.6-.2.7-.2,1.4-.2,2Z"/>
  <path class="st4" d="M269.5,123.7c.5-2.9,1-5.7,1.4-8.6,0-.2-.5-.5-1-1-1.7,2.9-1.7,5.9-2.3,8.8,0,.9.2,1.8.5,2.6.8-.9,1.2-1.3,1.3-1.8Z"/>
  <path class="st4" d="M210.4,158.1c-1.7,2.1-3.2,4.5-3.2,7.4.1.6.4,1.1.7,1.6,1.9-1.1,1-3.2,2-4.5.9-1.4,1.8-2.8,2.6-4.3-.8-1.2-1.6-.8-2.1-.2Z"/>
  <path class="st4" d="M306.1,29.6c.2.6,1.1,1.1,1.5,1.5,1.5-.4,2.6-.6,3.8-1,.9-.1,1.4-.9,1.3-1.8,0,0,0-.1,0-.2-.2-1.1-1.1-1.2-2-1.1s-2.1.4-3.1.7-1.8.9-1.4,1.9Z"/>
  <path class="st4" d="M301.5,118.1c0-.4-.8-.6-1.3-.9-.2.5-.7.9-.6,1.4.1,2,.3,4,.5,6.1,0,.5,0,1,.2,1.4.2.4.6.7,1,.7.4-.1.8-.5.9-.9,0-.9,0-1.7-.2-2.6h.1c-.2-1.7-.4-3.5-.7-5.2Z"/>
  <path class="st4" d="M223.9,149.4c-.7.1-1.7,0-2,.5-1.2,1.9-2.3,3.9-3.2,5.9-.4.7-.2,1.5.5,1.9.2.1.4.2.6.2.2-.4.5-.9.8-1.4,1-1.8,1.9-3.6,2.9-5.4.2-.6.4-1.1.5-1.7Z"/>
  <path class="st4" d="M215.6,147.7c1.8-1.5,3.6-3,5.2-4.6.4-.4.4-1.1.6-1.6-.5,0-1.3-.3-1.6,0-2,1.7-4,3.4-5.8,5.2-.2.2,0,.9-.1,1.6.6,0,1.2-.3,1.7-.5Z"/>
  <path class="st4" d="M238.2,104.4c.8-1.7,1.4-3.4,2.1-5.1.2-.5.3-.9.5-1.6-.2-.3-.5-.9-.8-1-.5,0-.9.2-1.1.6-.9,1.9-1.6,3.8-2.4,5.6-.1.3-.2.6-.1.9.2.5.5.9.8,1.4.4-.2.9-.4,1-.8Z"/>
  <path class="st4" d="M314.4,156c.5,1,.7,2.8,2.1,2.3,1.7-.6.2-2-.1-2.9-.8-1.7-1-3.8-3.4-5.5-.2.8-.2,1.6-.1,2.4.4,1.3.9,2.6,1.5,3.8Z"/>
  <path class="st4" d="M261,135.1c0,.3.4.8.8,1,.2.1.9-.3.9-.5.5-2.6.9-5.2,1.2-7.8,0-.3-.7-.7-1.5-1.5-.6,3.3-1.1,6-1.5,8.8Z"/>
  <path class="st4" d="M266.4,91c.4-1.7.7-3.4,1-5.2.1-.5.1-1,0-1.4-.2-.4-.6-.7-1-.8-.2,0-.8.4-.8.6-.5,2.5-.9,5.1-1.3,7.5,1.3.6,1.9.2,2-.8Z"/>
  <path class="st4" d="M260.9,50.2c-.5.3-1.2.5-1.5.9-1.2,2-2.2,4-3.5,6.3.9,1.3,1.8.7,2.3-.1,1.1-1.7,2.1-3.5,2.9-5.3.2-.4-.1-1.2-.3-1.8Z"/>
  <path class="st4" d="M266.8,57.9c.8-2.4,1.7-4.6,1.7-7.1,0-.3,0-.6-.1-.9-.3-.4-.7-.8-1-.8s-.8.6-.9.9c-.4,1.8-.7,3.6-1.1,5.4-.2.9-.3,1.8,1.4,2.5Z"/>
  <path class="st4" d="M297.2,88.8c2.1,1.4,3.4,3.6,3.6,6.1,0,.2.9.4,1.4.6.8-4.7-1.3-7.7-5-6.7Z"/>
  <path class="st4" d="M322.4,145.3c0-.5,0-1.3-.3-1.5-1.5-1.4-3.2-2.6-4.9-3.8-.4-.3-1.1,0-1.7,0l-.2.8c1.8,1.5,3.6,2.9,5.5,4.3.3.2,1,0,1.5,0Z"/>
  <path class="st4" d="M192.1,232.6c1.4-1.9,2.9-3.9,4.2-5.8.1-.2-.2-.9-.4-.9-.4,0-.9,0-1.3.3-1.4,1.9-2.6,3.8-4.2,6.2,1,.2,1.6.4,1.7.3Z"/>
  <path class="st4" d="M250.1,115.6c0-.5,0-1,0-1.5-.6.2-1.5.2-1.6.6-.8,1.8-1.4,3.6-2.1,5.6l1.2,1.4c.4-.4.8-.9,1.1-1.4.6-1.5,1-3.1,1.4-4.7Z"/>
  <path class="st4" d="M272.2,228.5c.2.2.9.3,1,.2.3-.3.5-.7.5-1.2-.4-2-.8-4-1.3-5.9,0-.3-.5-.6-.9-1.1-1.3,2.2-.8,6.9.7,8Z"/>
  <path class="st4" d="M237.6,118.2c1.1-2,2.2-4.1,3.3-6.2-.5-.5-.7-1-1.1-1.1-.4,0-.8,0-1,.4-1,2-1.9,4-2.8,6.1-.1.3.1.9.3,1,.4,0,1.2,0,1.3-.2Z"/>
  <path class="st4" d="M250.6,162.6c-.3,0-.8.4-.8.6-.2,2.5-.3,5,1.5,7.4.5-.5.9-.7.9-.9-.2-2.2-.4-4.4-.7-6.6,0-.2-.6-.6-.9-.6Z"/>
  <path class="st4" d="M270.4,41.2c1.1-1.7,2.2-3.4,3.1-5.2.1-.2-.3-.8-.6-1.7-2.2,2-2.8,4.7-4.7,6.3.7,1.4,1.6,1.4,2.2.5Z"/>
  <path class="st4" d="M274.9,212.9c.5,1.6,1.2,3.1,1.8,4.6.2.4.6.7,1.2,1.4.3-.9.8-1.5.7-1.9-.5-1.7-1.2-3.3-2-4.9-.2-.4-1-.6-1.5-.8,0,.5-.4,1.1-.3,1.6Z"/>
  <path class="st4" d="M259.2,79.2c-.6,1.7-1.1,3.5-1.5,5.3,0,.4.6,1,1.4,2.2.7-2.9,1.3-5,1.8-7.2,0-.2-.5-.7-.7-.7-.4,0-.7.2-1,.5Z"/>
  <path class="st4" d="M231.4,116.3c-1,2.4-1.8,4.4-2.6,6.4,0,.4.2.7.5.9.3.2.9.1,1,0,1.2-1.8,2.4-3.6,2.2-5.9,0-.4-.5-.7-1.1-1.4Z"/>
  <path class="st4" d="M288,134.4c-.2-.4-.9-.4-1.4-.6-.1.4-.4.9-.3,1.3.4,1.7.9,3.4,1.5,5,.1.4.7.7,1.5,1.3.5-2.4,0-4.9-1.3-7Z"/>
  <path class="st4" d="M281.9,95.6c.1-2.2-.2-4.4-.9-6.5-.1-.4-.7-.6-1.3-1.1-.4,2.2,0,6.4.7,7.2.2.3.8.2,1.4.4Z"/>
  <path class="st4" d="M261.3,165.9c-.3-1.1-.5-2.1-.6-3.2,0-1,.2-1.9.2-2.9s-.4-.9-.5-.9c-.5,0-.9.1-1.2.5-.9,1.3-.5,5.3.6,6.4.3.2.7.1,1.6.2Z"/>
  <path class="st4" d="M207.4,225.5c0-.4-.2-.7-.5-.9-.3-.1-.7,0-1,.2-1.2,2-2.3,4-3.7,6.5,1.1,0,1.7,0,2-.2,1.8-1.4,2.6-3.5,3.3-5.7Z"/>
  <path class="st4" d="M199.6,220.7c.3,0,.5,0,.8,0,1-.4,3.5-4.5,3.3-5.6,0-.3-.2-.5-.5-.7-.3-.1-.9-.1-1.1,0-1.1,1.7-2.1,3.5-3.1,5.2-.1.2.3.8.5,1.1Z"/>
  <path class="st4" d="M265.4,213.5c-.4.2-.7.6-.7,1.1.4,1.6.8,3.2,1.4,4.8.2.4.7.6,1.1.6.3,0,.6-.6.8-1-.5-1.8-1-3.4-1.5-4.9-.2-.4-.7-.6-1.1-.6Z"/>
  <path class="st4" d="M297.2,35.2c0,.4.6.8,1,1.3,1.6-2.3.5-6-1.8-6.5-.3,0-.9.1-1,.3-.1.4-.1,1.1,0,1.3,1.1.9,1.7,2.2,1.7,3.5Z"/>
  <path class="st4" d="M268.1,100.1c-.8,1.9-.9,4-.2,6,.1.3.7.5,1.4.9.2-2.5.5-4.5.6-6.6,0-.3-.4-.9-.6-.9-.4,0-1.1.2-1.2.5Z"/>
  <path class="st4" d="M288.4,222.6c.3-.3.6-.6.8-1-1.2-1.6-2.4-3.1-3.6-4.6-.1-.1-.7,0-1,.1-.2.2-.3.4-.3.7,1.1,1.6,2.2,3.1,3.4,4.7,0,.1.6.1.8,0Z"/>
  <path class="st4" d="M254.5,72.9c.5-.2.9-.2,1-.4.9-1.4,1.9-2.9,2.7-4.4.1-.2-.2-.8-.5-.9-.3-.1-.7,0-1,.1-1,1.4-2,2.8-2.9,4.3-.1.2.4.8.6,1.3Z"/>
  <path class="st4" d="M235.8,129.6c-.3,0-.7,0-1,.2-1.1,1.1-2.1,2.3-3,3.5-.3.4-.2,1,.2,1.3.2.2.5.2.8.2,1-.2,3.6-3.3,3.7-4.5-.2-.1-.4-.6-.7-.6Z"/>
  <path class="st4" d="M192.8,221.8c1.8-1.9,1.8-2,.6-3.3l-4.5,4.1c1.6,1.2,2.1,1.1,3.9-.8Z"/>
  <path class="st4" d="M277.3,142c.8-2.1.1-4.5-2-6.4-.9,2.3.2,5.5,2,6.4Z"/>
  <path class="st4" d="M250.9,130.2c-.6.2-1.3.2-1.5.5-.8,1.8-2.5,3.4-1.8,5.6,1.8-.5,3.3-3.2,3.3-6.2Z"/>
  <path class="st4" d="M284.4,230.7c.4,0,.7-.4,1-.6,0-.4,0-.6-.2-.8-1.2-1.2-2.5-2.4-3.8-3.6-.3-.1-.6,0-.8.1-.3.3-.4.6-.4,1,.2,1,3.2,3.9,4.2,3.9Z"/>
  <path class="st4" d="M312.6,132c.2.1.8-.1,1-.4.2-.3.2-.7,0-1-.9-1.1-1.9-2.1-3-3.1-.6-.4-1.1-.7-1.8-1l-.6.8c.7,2.2,2.6,3.5,4.5,4.8Z"/>
  <path class="st4" d="M222.3,159.5c-2,2.5-2.6,4.6-1.9,6.1.2.4.9.6,1.4.8-.4-2.4,1.8-4.3.5-6.9Z"/>
  <path class="st4" d="M324.9,158.9l-4.3-4.4c-.3.4-1,1-.9,1.1,1.1,1.4,2.2,2.7,3.4,4,.1,0,.9-.4,1.8-.8Z"/>
  <path class="st4" d="M210.2,203.4c-2.2.6-2,2.4-2.4,3.7-.2.9-.4,2,1,2.2,1.1-1.8,1.6-3.9,1.4-6Z"/>
  <path class="st4" d="M291.2,100c-.4-1-1-1.9-2.6-1.2.9,2,1.1,4.1,2.9,5.8,1.4-1.9.2-3.3-.3-4.7Z"/>
  <path class="st4" d="M231.8,148c0,1,.2,1.9,1.7,1.8l1.8-5.8c-1.9.5-3.3,2.1-3.5,4Z"/>
  <path class="st4" d="M309,143.2c.3-.1.6-.7.5-.9-.5-1.4-1.2-2.7-1.9-4-.1-.2-.7-.3-1-.2s-.5.5-.8.9c.7,1.4,1.4,2.7,2.1,3.9.3.2.6.3,1,.2Z"/>
  <path class="st4" d="M289.1,29.1c-2.5.6-2.5,2.2-2.8,3.5-.2,1,0,1.9,1.7,2,.3-1.7.7-3.3,1.1-5.5Z"/>
  <path class="st4" d="M284.3,208.8c.8.9,1.7,1.7,2.6,2.5,1.3-.5,1.2-1.3.7-2-.6-.8-1.3-1.4-2.1-2-.3-.2-.9,0-1.3,0,0,.5-.1,1.2.2,1.5Z"/>
  <path class="st4" d="M217.9,209.9c-1.3,1.7-.6,3.1-.2,4.5,0,.3.9.4,1.6.8,0-2,.5-3.8-1.4-5.2Z"/>
  <path class="st4" d="M252.3,100.4c-.2.9-.2,1.9.2,2.8.4.7,1.2.3,1.5-.5.3-1.1.5-2.2.7-3.5-1.7-.7-2.2.3-2.4,1.2Z"/>
  <path class="st4" d="M294.6,228.3c.3-1.1-.4-1.5-1.5-1.7-.5.9-.8,1.8.4,2.3.4,0,.9-.2,1.1-.6Z"/>
  <path class="st0" d="M196,160.7s1.6,20.9,47.7,20.5c46.1-.4,69.1-15.9,69.1-15.9,0,0,2.9,6.9.9,11s-26.5,37-68.2,36.5c-13.7-.1-25.2-8.8-33.2-14.5-16.4-11.7-20.5-26.4-16.3-37.6Z"/>
  <path class="st4" d="M253.4,210.8c-12,1.1-23.9-2-33.8-8.8-3.6-2.5-7.1-5.3-10.5-8.1-2-1.6-3.8-3.4-5.6-5.2-5-5.2-7.4-11.7-8.5-18.7-.5-2.5-.2-5.1.9-7.4.6,1.9,1,3.4,1.6,4.8.5,1.3,1.2,2.4,2.1,3.4,1.4,1.4,3,2.5,4.7,3.5,5.6,3.2,11.8,5.3,18.3,6.3,5.4.7,10.9,1.2,16.4,1.5,7.7.6,15.5.3,23.2-.7,9-1.5,17.9-3.6,26.6-6.4,6.1-1.9,12.1-4,18.1-6.2,1-.5,1.9-1.1,2.8-1.7l-.3-.8c-1.1,0-2.2.3-3.3.5-4.9,1.5-9.7,3.2-14.6,4.6-4,1.2-8.2,2-12.2,3.3-7.6,2.4-15.4,4.3-23.4,4.5-9,.3-18.1-.1-27.1-.6-6.7-.5-13.2-2.1-19.4-4.8-5.1-1.9-9.2-5.7-11.7-10.5-.4-.8-.6-1.9.6-2,2.5-.3,1.3-1.8,1.2-3h0c-2-.4-4-.3-5.2,1.8-1.5,2.6-2.6,5.5-2.1,8.4,1.2,7.5,3.6,14.5,8.5,20.6,4.3,5.1,9.3,9.6,14.8,13.4,2.7,2.1,5.6,3.9,8.7,5.5,11.4,5.5,24.3,7.1,36.8,4.8,8.4-1.5,16.2-4.7,23.8-8.4,9.1-4.5,17.1-11,23.5-18.9,2.3-2.8,3.8-6.1,5.6-9.3.2-.6.3-1.3.3-2-2.2,2.4-3.8,5-5.7,7.4-14.3,17.4-32.8,27.2-55.2,29.3Z"/>
  <path class="st4" d="M275.7,196.3c-9.8,3.9-19.9,6.5-30.6,5.5-7-.6-14-2.2-20.6-4.7-.9-.3-1.8-.5-2.6-.7,4.4,3.1,9.4,5.4,14.6,6.8,8.3,2.4,16.7,3.3,25.1.4,2.1-.7,4.3-1.4,6.4-2.2,3.5-1.4,7.3-2.4,10.2-5l-1.2-.6c-.5.1-.9.2-1.4.4Z"/>
  <path class="st4" d="M282,193.3l-5,2.5,1.2.6,4.2-2.5-.3-.6Z"/>
  <path class="st4" d="M291.8,181.7v-.7l-4.8,1.9c-2.5.9-5,1.7-7.4,2.7-7.6,3-15.4,5.3-23.6,5.5-7,.2-13.9,0-20.9,0-4.9-1.6-7.9-2.1-9.9-1.4l8.1,2c2.7.4,5.4.8,8.1,1.1,2.3.2,4.7,0,7.1.3,7.6.7,15.3,0,22.7-1.9,6.1-1.5,11.4-5.2,17.1-7.7l3.6-1.7Z"/>
</svg>